<?xml version="1.0" encoding="UTF-8"?>
<!DOCTYPE svg PUBLIC "-//W3C//DTD SVG 1.1//EN" "http://www.w3.org/Graphics/SVG/1.1/DTD/svg11.dtd">
<svg xmlns="http://www.w3.org/2000/svg" version="1.1" width="256px" height="256px" style="shape-rendering:geometricPrecision; text-rendering:geometricPrecision; image-rendering:optimizeQuality; fill-rule:evenodd; clip-rule:evenodd" xmlns:xlink="http://www.w3.org/1999/xlink">
<g><path style="opacity:0.974" fill="#ffc106" d="M 163.5,23.5 C 166.187,23.3359 168.854,23.5026 171.5,24C 173.333,24.5 174.5,25.6667 175,27.5C 175.667,32.8333 175.667,38.1667 175,43.5C 174.5,45.3333 173.333,46.5 171.5,47C 168.833,47.6667 166.167,47.6667 163.5,47C 161.667,46.5 160.5,45.3333 160,43.5C 159.333,38.1667 159.333,32.8333 160,27.5C 160.69,25.6498 161.856,24.3164 163.5,23.5 Z"/></g>
<g><path style="opacity:0.96" fill="#ffc006" d="M 112.5,44.5 C 122.059,44.2228 128.059,48.7228 130.5,58C 129.602,65.1251 125.602,67.7917 118.5,66C 115.37,63.872 112.537,61.372 110,58.5C 107.418,53.1198 108.251,48.4531 112.5,44.5 Z"/></g>
<g><path style="opacity:0.958" fill="#ffc006" d="M 214.5,44.5 C 223.657,43.4892 227.49,47.4892 226,56.5C 223.872,59.6301 221.372,62.4634 218.5,65C 208.426,68.5533 203.926,65.0533 205,54.5C 207.696,50.6393 210.863,47.306 214.5,44.5 Z"/></g>
<g><path style="opacity:0.972" fill="#fec007" d="M 201.5,125.5 C 195.849,123.161 190.183,121.161 184.5,119.5C 191.449,110.445 192.283,100.778 187,90.5C 177.88,79.8483 167.047,77.6816 154.5,84C 148.433,88.3039 145.1,94.1373 144.5,101.5C 138.822,98.6641 133.489,95.3308 128.5,91.5C 139.175,66.9792 157.508,58.4792 183.5,66C 202.586,75.6716 210.42,91.1716 207,112.5C 205.836,117.171 204.003,121.504 201.5,125.5 Z"/></g>
<g><path style="opacity:0.985" fill="#263137" d="M 128.5,91.5 C 133.489,95.3308 138.822,98.6641 144.5,101.5C 150.424,106.65 155.424,112.65 159.5,119.5C 167.751,119.675 176.084,119.675 184.5,119.5C 190.183,121.161 195.849,123.161 201.5,125.5C 224.646,139.13 234.479,159.464 231,186.5C 225.5,210.667 210.667,225.5 186.5,231C 139.5,231.667 92.5,231.667 45.5,231C 17.0794,222.346 4.57941,203.18 8,173.5C 12.6057,155.726 23.439,143.393 40.5,136.5C 52.2679,100.932 76.9346,84.7656 114.5,88C 119.265,88.8578 123.931,90.0245 128.5,91.5 Z M 94.5,104.5 C 120.717,102.353 138.884,113.353 149,137.5C 151.763,139.97 154.93,140.804 158.5,140C 179.048,132.176 195.881,137.01 209,154.5C 220.455,179.465 214.289,198.632 190.5,212C 185.65,213.732 180.65,214.732 175.5,215C 135.5,215.667 95.5,215.667 55.5,215C 39.8185,213.589 29.6519,205.423 25,190.5C 22.4608,176.422 26.9608,165.255 38.5,157C 44.1502,154.721 49.6502,152.221 55,149.5C 58.8656,126.145 72.0322,111.145 94.5,104.5 Z"/></g>
<g><path style="opacity:0.974" fill="#ffc106" d="M 227.5,95.5 C 233.621,95.0899 239.621,95.5899 245.5,97C 250.196,107.45 246.863,112.283 235.5,111.5C 225.665,113.166 221.832,109.166 224,99.5C 224.69,97.6498 225.856,96.3164 227.5,95.5 Z"/></g>
</svg>
