<?xml version="1.0" encoding="UTF-8"?>
<!DOCTYPE svg PUBLIC "-//W3C//DTD SVG 1.1//EN" "http://www.w3.org/Graphics/SVG/1.1/DTD/svg11.dtd">
<svg xmlns="http://www.w3.org/2000/svg" version="1.1" width="256px" height="256px" style="shape-rendering:geometricPrecision; text-rendering:geometricPrecision; image-rendering:optimizeQuality; fill-rule:evenodd; clip-rule:evenodd" xmlns:xlink="http://www.w3.org/1999/xlink">
<g><path style="opacity:0.984" fill="#253137" d="M 99.5,47.5 C 129.534,44.1916 153.534,54.5249 171.5,78.5C 199.42,76.2174 221.587,86.2174 238,108.5C 250.667,131.833 250.667,155.167 238,178.5C 227.501,193.981 213.001,203.481 194.5,207C 147.167,207.667 99.8333,207.667 52.5,207C 19.4331,197.233 4.59976,175.066 8,140.5C 12.7063,121.063 24.0396,107.063 42,98.5C 51.6809,70.6446 70.8475,53.6446 99.5,47.5 Z M 111.5,63.5 C 127.864,64.3421 141.698,70.6754 153,82.5C 156.378,87.4218 159.878,92.2551 163.5,97C 165,97.5 166.5,98 168,98.5C 194.325,91.8373 213.992,100.504 227,124.5C 235.903,152.137 227.736,172.971 202.5,187C 196.4,189.442 190.067,190.775 183.5,191C 143.5,191.667 103.5,191.667 63.5,191C 35.6067,187.382 22.7733,171.549 25,143.5C 26.8147,134.368 31.3147,126.868 38.5,121C 44.283,117.361 50.1163,113.861 56,110.5C 60.5348,91.6429 71.3682,77.8096 88.5,69C 96.0346,66.0315 103.701,64.1982 111.5,63.5 Z"/></g>
</svg>
