<?xml version="1.0" encoding="UTF-8"?>
<!DOCTYPE svg PUBLIC "-//W3C//DTD SVG 1.1//EN" "http://www.w3.org/Graphics/SVG/1.1/DTD/svg11.dtd">
<svg xmlns="http://www.w3.org/2000/svg" version="1.1" width="256px" height="256px" style="shape-rendering:geometricPrecision; text-rendering:geometricPrecision; image-rendering:optimizeQuality; fill-rule:evenodd; clip-rule:evenodd" xmlns:xlink="http://www.w3.org/1999/xlink">
<g><path style="opacity:0.983" fill="#253137" d="M 99.5,7.5 C 129.534,4.19157 153.534,14.5249 171.5,38.5C 199.42,36.2174 221.587,46.2174 238,68.5C 250.667,91.8333 250.667,115.167 238,138.5C 227.501,153.981 213.001,163.481 194.5,167C 147.167,167.667 99.8333,167.667 52.5,167C 19.4331,157.233 4.59976,135.066 8,100.5C 12.7063,81.0632 24.0396,67.0632 42,58.5C 51.6809,30.6446 70.8475,13.6446 99.5,7.5 Z M 111.5,23.5 C 127.864,24.3421 141.698,30.6754 153,42.5C 156.378,47.4218 159.878,52.2551 163.5,57C 165,57.5 166.5,58 168,58.5C 194.325,51.8373 213.992,60.504 227,84.5C 235.903,112.137 227.736,132.971 202.5,147C 196.4,149.442 190.067,150.775 183.5,151C 143.5,151.667 103.5,151.667 63.5,151C 35.6067,147.382 22.7733,131.549 25,103.5C 26.9539,93.8816 31.7873,86.0483 39.5,80C 45.1138,76.9459 50.6138,73.7792 56,70.5C 60.5348,51.6429 71.3682,37.8096 88.5,29C 96.0346,26.0315 103.701,24.1982 111.5,23.5 Z"/></g>
<g><path style="opacity:0.949" fill="#4ec2f7" d="M 51.5,183.5 C 61.33,181.829 65.1634,185.829 63,195.5C 60,201.5 57,207.5 54,213.5C 43.3869,218.205 38.7202,214.872 40,203.5C 43.1174,196.245 46.9508,189.579 51.5,183.5 Z"/></g>
<g><path style="opacity:0.949" fill="#4ec2f7" d="M 99.5,183.5 C 109.33,181.829 113.163,185.829 111,195.5C 108,201.5 105,207.5 102,213.5C 91.3869,218.205 86.7202,214.872 88,203.5C 91.1174,196.245 94.9508,189.579 99.5,183.5 Z"/></g>
<g><path style="opacity:0.949" fill="#4ec2f7" d="M 147.5,183.5 C 157.33,181.829 161.163,185.829 159,195.5C 156,201.5 153,207.5 150,213.5C 139.387,218.205 134.72,214.872 136,203.5C 139.117,196.245 142.951,189.579 147.5,183.5 Z"/></g>
<g><path style="opacity:0.949" fill="#4ec2f7" d="M 195.5,183.5 C 205.33,181.829 209.163,185.829 207,195.5C 204,201.5 201,207.5 198,213.5C 187.387,218.205 182.72,214.872 184,203.5C 187.117,196.245 190.951,189.579 195.5,183.5 Z"/></g>
<g><path style="opacity:0.948" fill="#4ec2f7" d="M 67.5,215.5 C 77.33,213.829 81.1634,217.829 79,227.5C 76,233.5 73,239.5 70,245.5C 59.3869,250.205 54.7202,246.872 56,235.5C 59.1174,228.245 62.9508,221.579 67.5,215.5 Z"/></g>
<g><path style="opacity:0.948" fill="#4ec2f7" d="M 115.5,215.5 C 125.33,213.829 129.163,217.829 127,227.5C 124,233.5 121,239.5 118,245.5C 107.387,250.205 102.72,246.872 104,235.5C 107.117,228.245 110.951,221.579 115.5,215.5 Z"/></g>
<g><path style="opacity:0.948" fill="#4ec2f7" d="M 163.5,215.5 C 173.33,213.829 177.163,217.829 175,227.5C 172,233.5 169,239.5 166,245.5C 155.387,250.205 150.72,246.872 152,235.5C 155.117,228.245 158.951,221.579 163.5,215.5 Z"/></g>
</svg>
