<?xml version="1.0" encoding="UTF-8"?>
<!DOCTYPE svg PUBLIC "-//W3C//DTD SVG 1.1//EN" "http://www.w3.org/Graphics/SVG/1.1/DTD/svg11.dtd">
<svg xmlns="http://www.w3.org/2000/svg" version="1.1" width="256px" height="256px" style="shape-rendering:geometricPrecision; text-rendering:geometricPrecision; image-rendering:optimizeQuality; fill-rule:evenodd; clip-rule:evenodd" xmlns:xlink="http://www.w3.org/1999/xlink">
<g><path style="opacity:0.989" fill="#ffc106" d="M 123.5,7.5 C 126.187,7.33591 128.854,7.50258 131.5,8C 133.333,8.5 134.5,9.66667 135,11.5C 135.667,24.8333 135.667,38.1667 135,51.5C 134.5,53.3333 133.333,54.5 131.5,55C 128.833,55.6667 126.167,55.6667 123.5,55C 121.667,54.5 120.5,53.3333 120,51.5C 119.333,38.1667 119.333,24.8333 120,11.5C 120.69,9.64977 121.856,8.31643 123.5,7.5 Z"/></g>
<g><path style="opacity:0.979" fill="#ffc106" d="M 50.5,45.5 C 53.6492,45.2114 56.6492,45.7114 59.5,47C 65.6667,53.1667 71.8333,59.3333 78,65.5C 80.8333,76.6667 76.6667,80.8333 65.5,78C 59.3333,71.8333 53.1667,65.6667 47,59.5C 44.2672,53.7222 45.4339,49.0555 50.5,45.5 Z"/></g>
<g><path style="opacity:0.973" fill="#ffc106" d="M 197.5,45.5 C 208.039,44.9148 211.539,49.5815 208,59.5C 201.833,65.6667 195.667,71.8333 189.5,78C 178.333,80.8333 174.167,76.6667 177,65.5C 183.729,58.6033 190.562,51.9366 197.5,45.5 Z"/></g>
<g><path style="opacity:0.967" fill="#ffc106" d="M 116.5,71.5 C 151.018,68.5522 173.185,83.5522 183,116.5C 186.4,151.066 171.567,173.233 138.5,183C 103.934,186.4 81.7672,171.567 72,138.5C 68.7727,103.935 83.606,81.6017 116.5,71.5 Z M 119.5,88.5 C 143.48,86.3393 158.98,96.6726 166,119.5C 168.648,143.501 158.482,159.001 135.5,166C 111.499,168.648 95.9988,158.482 89,135.5C 86.5588,111.474 96.7255,95.8074 119.5,88.5 Z"/></g>
<g><path style="opacity:0.989" fill="#ffc106" d="M 11.5,119.5 C 24.8375,119.333 38.1708,119.5 51.5,120C 53.3333,120.5 54.5,121.667 55,123.5C 55.6667,126.167 55.6667,128.833 55,131.5C 54.5,133.333 53.3333,134.5 51.5,135C 38.1667,135.667 24.8333,135.667 11.5,135C 8.48396,133.471 7.15062,130.971 7.5,127.5C 7.2824,123.934 8.61574,121.268 11.5,119.5 Z"/></g>
<g><path style="opacity:0.989" fill="#ffc106" d="M 203.5,119.5 C 216.837,119.333 230.171,119.5 243.5,120C 245.333,120.5 246.5,121.667 247,123.5C 247.667,126.167 247.667,128.833 247,131.5C 246.5,133.333 245.333,134.5 243.5,135C 230.167,135.667 216.833,135.667 203.5,135C 200.484,133.471 199.151,130.971 199.5,127.5C 199.282,123.934 200.616,121.268 203.5,119.5 Z"/></g>
<g><path style="opacity:0.971" fill="#ffc106" d="M 68.5,175.5 C 77.8777,175.918 81.0444,180.584 78,189.5C 71.8333,195.667 65.6667,201.833 59.5,208C 48,211.167 43.8333,207 47,195.5C 53.7854,188.207 60.9521,181.54 68.5,175.5 Z"/></g>
<g><path style="opacity:0.974" fill="#ffc106" d="M 181.5,175.5 C 184.271,175.421 186.937,175.921 189.5,177C 195.667,183.167 201.833,189.333 208,195.5C 211.167,207 207,211.167 195.5,208C 189.333,201.833 183.167,195.667 177,189.5C 174.251,183.356 175.751,178.689 181.5,175.5 Z"/></g>
<g><path style="opacity:0.989" fill="#ffc106" d="M 123.5,199.5 C 126.187,199.336 128.854,199.503 131.5,200C 133.333,200.5 134.5,201.667 135,203.5C 135.667,216.833 135.667,230.167 135,243.5C 134.5,245.333 133.333,246.5 131.5,247C 128.833,247.667 126.167,247.667 123.5,247C 121.667,246.5 120.5,245.333 120,243.5C 119.333,230.167 119.333,216.833 120,203.5C 120.69,201.65 121.856,200.316 123.5,199.5 Z"/></g>
</svg>
