<?xml version="1.0" encoding="UTF-8"?>
<!DOCTYPE svg PUBLIC "-//W3C//DTD SVG 1.1//EN" "http://www.w3.org/Graphics/SVG/1.1/DTD/svg11.dtd">
<svg xmlns="http://www.w3.org/2000/svg" version="1.1" width="256px" height="256px" style="shape-rendering:geometricPrecision; text-rendering:geometricPrecision; image-rendering:optimizeQuality; fill-rule:evenodd; clip-rule:evenodd" xmlns:xlink="http://www.w3.org/1999/xlink">
<g><path style="opacity:0.98" fill="#253137" d="M 99.5,23.5 C 129.534,20.1916 153.534,30.5249 171.5,54.5C 199.42,52.2174 221.587,62.2174 238,84.5C 250.667,107.833 250.667,131.167 238,154.5C 220.869,178.567 197.869,187.567 169,181.5C 166.891,177.219 167.058,173.052 169.5,169C 177.073,167.617 184.74,166.617 192.5,166C 220.077,157.746 232.577,139.246 230,110.5C 223.4,86.5667 207.734,73.5667 183,71.5C 177.983,72.2091 172.983,73.2091 168,74.5C 166.5,74 165,73.5 163.5,73C 159.878,68.2551 156.378,63.4218 153,58.5C 134.334,40.034 112.834,35.534 88.5,45C 71.3682,53.8096 60.5348,67.6429 56,86.5C 50.6138,89.7792 45.1138,92.9459 39.5,96C 25.118,108.691 20.9514,124.191 27,142.5C 31.983,153.484 40.1496,160.984 51.5,165C 62.8352,166.664 74.1685,167.997 85.5,169C 87.9423,173.052 88.109,177.219 86,181.5C 62.4289,188.178 41.4289,183.511 23,167.5C 5.78044,146.794 2.78044,124.128 14,99.5C 20.6771,88.1662 30.0104,79.8329 42,74.5C 51.6809,46.6446 70.8475,29.6446 99.5,23.5 Z"/></g>
<g><path style="opacity:0.981" fill="#ffc006" d="M 107.5,151.5 C 123.503,151.333 139.503,151.5 155.5,152C 157.333,152.5 158.5,153.667 159,155.5C 159.667,158.167 159.667,160.833 159,163.5C 157.364,166.606 155.864,169.773 154.5,173C 155.985,175.156 157.485,177.323 159,179.5C 159.667,182.167 159.667,184.833 159,187.5C 147.863,202.63 136.03,217.13 123.5,231C 119.756,231.929 116.256,231.429 113,229.5C 111.876,218.581 111.043,207.581 110.5,196.5C 106.167,194.333 101.833,192.167 97.5,190C 95.5441,186.405 95.0441,182.572 96,178.5C 98.3333,171.5 100.667,164.5 103,157.5C 103.804,154.854 105.304,152.854 107.5,151.5 Z M 117.5,167.5 C 124.2,167.17 130.866,167.503 137.5,168.5C 134.397,174.342 135.064,179.675 139.5,184.5C 135.475,189.358 131.642,194.358 128,199.5C 127.881,194.718 127.215,190.051 126,185.5C 122.579,183.539 119.079,181.706 115.5,180C 114.978,179.439 114.645,178.772 114.5,178C 115.811,174.569 116.811,171.069 117.5,167.5 Z"/></g>
<g><path style="opacity:0.969" fill="#4fc3f7" d="M 51.5,199.5 C 54.1873,199.336 56.854,199.503 59.5,200C 61.3333,200.5 62.5,201.667 63,203.5C 63.6667,211.5 63.6667,219.5 63,227.5C 62.5,229.333 61.3333,230.5 59.5,231C 56.8333,231.667 54.1667,231.667 51.5,231C 49.6667,230.5 48.5,229.333 48,227.5C 47.3333,219.5 47.3333,211.5 48,203.5C 48.6897,201.65 49.8564,200.316 51.5,199.5 Z"/></g>
<g><path style="opacity:0.969" fill="#4fc3f7" d="M 83.5,199.5 C 86.1873,199.336 88.854,199.503 91.5,200C 93.3333,200.5 94.5,201.667 95,203.5C 95.6667,211.5 95.6667,219.5 95,227.5C 94.5,229.333 93.3333,230.5 91.5,231C 88.8333,231.667 86.1667,231.667 83.5,231C 81.6667,230.5 80.5,229.333 80,227.5C 79.3333,219.5 79.3333,211.5 80,203.5C 80.6897,201.65 81.8564,200.316 83.5,199.5 Z"/></g>
<g><path style="opacity:0.969" fill="#4fc3f7" d="M 163.5,199.5 C 166.187,199.336 168.854,199.503 171.5,200C 173.333,200.5 174.5,201.667 175,203.5C 175.667,211.5 175.667,219.5 175,227.5C 174.5,229.333 173.333,230.5 171.5,231C 168.833,231.667 166.167,231.667 163.5,231C 161.667,230.5 160.5,229.333 160,227.5C 159.333,219.5 159.333,211.5 160,203.5C 160.69,201.65 161.856,200.316 163.5,199.5 Z"/></g>
<g><path style="opacity:0.969" fill="#4fc3f7" d="M 195.5,199.5 C 198.187,199.336 200.854,199.503 203.5,200C 205.333,200.5 206.5,201.667 207,203.5C 207.667,211.5 207.667,219.5 207,227.5C 206.5,229.333 205.333,230.5 203.5,231C 200.833,231.667 198.167,231.667 195.5,231C 193.667,230.5 192.5,229.333 192,227.5C 191.333,219.5 191.333,211.5 192,203.5C 192.69,201.65 193.856,200.316 195.5,199.5 Z"/></g>
</svg>
